<?xml version="1.0" encoding="utf-8"?>
<!-- Generator: Adobe Illustrator 15.1.0, SVG Export Plug-In . SVG Version: 6.00 Build 0)  -->
<!DOCTYPE svg PUBLIC "-//W3C//DTD SVG 1.1//EN" "http://www.w3.org/Graphics/SVG/1.1/DTD/svg11.dtd">
<svg version="1.1" id="Layer_1" xmlns="http://www.w3.org/2000/svg" xmlns:xlink="http://www.w3.org/1999/xlink" x="0px" y="0px"
	 width="60px" height="60px" viewBox="0 0 60 60" enable-background="new 0 0 60 60" xml:space="preserve">
<path d="M20.155,28.889c0,1.235-0.186,2.354-0.554,3.361c-0.37,1.005-0.89,1.862-1.56,2.576c-0.67,0.712-1.473,1.262-2.406,1.648
	c-0.935,0.389-1.971,0.582-3.107,0.582c-1.123,0-2.15-0.193-3.084-0.582c-0.935-0.387-1.736-0.937-2.407-1.648
	c-0.671-0.714-1.192-1.571-1.564-2.576c-0.374-1.007-0.56-2.126-0.56-3.361c0-1.228,0.187-2.345,0.56-3.35
	c0.372-1.006,0.894-1.865,1.564-2.576c0.67-0.712,1.472-1.264,2.407-1.655c0.934-0.392,1.962-0.587,3.084-0.587
	c1.137,0,2.173,0.194,3.107,0.582c0.933,0.388,1.735,0.939,2.406,1.655c0.67,0.715,1.189,1.576,1.56,2.582
	C19.969,26.544,20.155,27.661,20.155,28.889z M18.957,28.889c0-1.115-0.154-2.117-0.462-3.006c-0.309-0.888-0.744-1.641-1.306-2.259
	c-0.561-0.618-1.236-1.09-2.027-1.417c-0.792-0.328-1.669-0.492-2.633-0.492c-0.949,0-1.817,0.164-2.605,0.492
	c-0.787,0.327-1.464,0.8-2.034,1.417c-0.568,0.618-1.009,1.372-1.321,2.259C6.256,26.772,6.1,27.774,6.1,28.889
	c0,1.122,0.156,2.125,0.469,3.011c0.312,0.886,0.752,1.636,1.321,2.253c0.569,0.618,1.247,1.089,2.034,1.413
	c0.788,0.323,1.656,0.485,2.605,0.485c0.963,0,1.841-0.162,2.633-0.485c0.791-0.324,1.466-0.795,2.027-1.413
	c0.562-0.617,0.997-1.367,1.306-2.253C18.802,31.014,18.957,30.011,18.957,28.889z"/>
<path d="M33.245,36.888h-0.892c-0.105,0-0.192-0.027-0.26-0.084c-0.068-0.058-0.12-0.131-0.158-0.221l-1.887-4.645h-7.853
	l-1.876,4.645c-0.03,0.082-0.083,0.153-0.158,0.215c-0.075,0.059-0.166,0.09-0.271,0.09h-0.881L25.551,20.9h1.152L33.245,36.888z
	 M22.545,31.081h7.164l-3.265-8.079c-0.053-0.128-0.105-0.273-0.158-0.435c-0.053-0.162-0.106-0.333-0.158-0.514
	c-0.053,0.18-0.106,0.352-0.158,0.514c-0.053,0.162-0.106,0.311-0.158,0.446L22.545,31.081z"/>
<path d="M33.903,30.448v6.439h-1.152V20.9h4.124c1.876,0,3.29,0.411,4.242,1.232c0.954,0.821,1.43,1.992,1.43,3.513
	c0,0.701-0.13,1.346-0.391,1.933c-0.26,0.587-0.634,1.094-1.124,1.52c-0.488,0.425-1.084,0.757-1.785,0.994
	c-0.699,0.238-1.49,0.357-2.372,0.357H33.903z M33.903,29.521h2.972c0.707,0,1.34-0.098,1.898-0.293
	c0.557-0.196,1.03-0.468,1.418-0.814c0.388-0.347,0.685-0.755,0.893-1.226c0.206-0.47,0.31-0.985,0.31-1.543
	c0-1.227-0.378-2.172-1.135-2.835c-0.758-0.664-1.886-0.994-3.384-0.994h-2.972V29.521z"/>
<path d="M54.16,36.888h-0.894c-0.105,0-0.191-0.027-0.26-0.084c-0.068-0.058-0.121-0.131-0.158-0.221l-1.887-4.645h-7.853
	l-1.875,4.645c-0.029,0.082-0.085,0.153-0.158,0.215c-0.075,0.059-0.167,0.09-0.271,0.09h-0.881L46.466,20.9h1.151L54.16,36.888z
	 M43.46,31.081h7.164l-3.266-8.079c-0.054-0.128-0.105-0.273-0.158-0.435c-0.054-0.162-0.107-0.333-0.158-0.514
	c-0.053,0.18-0.107,0.352-0.158,0.514c-0.053,0.162-0.107,0.311-0.158,0.446L43.46,31.081z"/>
</svg>
